<svg id="svg" xmlns="http://www.w3.org/2000/svg" xmlns:xlink="http://www.w3.org/1999/xlink" width="400" height="400" viewBox="0, 0, 400,400"><g id="svgg"><path id="path0" d="M361.481 200.572 L 361.481 218.921 364.167 218.813 L 366.852 218.704 367.037 213.602 L 367.222 208.500 371.806 213.694 L 376.389 218.889 379.654 218.889 C 381.450 218.889,383.002 218.755,383.103 218.591 C 383.204 218.428,380.553 215.386,377.212 211.832 C 373.870 208.278,371.131 205.269,371.124 205.144 C 371.117 205.020,373.819 202.044,377.130 198.531 C 380.440 195.018,383.204 191.995,383.272 191.813 C 383.340 191.631,381.756 191.491,379.753 191.503 L 376.111 191.524 371.667 196.709 L 367.222 201.894 367.124 192.058 L 367.025 182.222 364.253 182.222 L 361.481 182.222 361.481 200.572 M8.889 201.481 L 8.889 218.889 18.519 218.889 L 28.148 218.889 28.148 216.852 L 28.148 214.815 21.296 214.815 L 14.444 214.815 14.444 209.259 L 14.444 203.704 20.556 203.704 L 26.667 203.704 26.667 201.481 L 26.667 199.259 20.556 199.259 L 14.444 199.259 14.444 193.889 L 14.444 188.519 21.296 188.519 L 28.148 188.519 28.148 186.296 L 28.148 184.074 18.519 184.074 L 8.889 184.074 8.889 201.481 M152.222 201.481 L 152.222 218.889 154.815 218.889 L 157.407 218.889 157.414 205.833 L 157.422 192.778 166.026 205.829 L 174.630 218.880 177.130 218.884 L 179.630 218.889 179.630 201.481 L 179.630 184.074 177.042 184.074 L 174.454 184.074 174.357 196.934 L 174.259 209.794 165.765 196.934 L 157.271 184.074 154.747 184.074 L 152.222 184.074 152.222 201.481 M226.667 201.498 L 226.667 218.921 229.352 218.813 L 232.037 218.704 232.138 211.944 L 232.239 205.185 234.545 205.199 L 236.852 205.213 240.741 212.041 L 244.630 218.868 247.685 218.878 C 251.528 218.892,251.588 219.376,246.733 211.287 L 242.725 204.611 244.699 203.740 C 250.761 201.064,252.486 192.172,247.842 187.529 C 245.197 184.884,241.504 184.082,231.944 184.077 L 226.667 184.074 226.667 201.498 M95.185 188.148 L 95.185 191.481 93.315 191.481 L 91.445 191.481 91.556 193.611 L 91.667 195.741 93.426 195.854 L 95.185 195.967 95.185 204.962 C 95.185 217.620,95.968 218.889,103.782 218.889 L 107.407 218.889 107.407 216.667 L 107.407 214.444 104.856 214.444 C 100.478 214.444,100.579 214.672,100.433 204.478 L 100.310 195.926 103.859 195.926 L 107.407 195.926 107.407 193.704 L 107.407 191.481 103.889 191.481 L 100.370 191.481 100.370 188.148 L 100.370 184.815 97.778 184.815 L 95.185 184.815 95.185 188.148 M241.988 189.440 C 245.818 191.273,245.882 196.978,242.104 199.781 C 241.209 200.444,240.426 200.573,236.641 200.679 L 232.222 200.803 232.222 194.614 L 232.222 188.425 236.389 188.590 C 239.414 188.709,240.948 188.942,241.988 189.440 M55.000 191.629 C 45.366 194.676,42.640 208.259,50.153 215.774 C 54.780 220.402,61.966 220.766,67.130 216.632 L 68.519 215.521 68.519 217.205 L 68.519 218.889 71.296 218.889 L 74.074 218.889 74.074 205.185 L 74.074 191.481 71.296 191.481 L 68.519 191.481 68.519 193.146 L 68.519 194.810 66.836 193.526 C 63.898 191.283,58.719 190.453,55.000 191.629 M277.157 191.623 C 265.722 195.356,265.115 213.336,276.252 218.448 C 280.518 220.406,286.593 219.408,289.907 216.204 L 291.111 215.040 291.111 216.964 L 291.111 218.889 293.704 218.889 L 296.296 218.889 296.296 205.185 L 296.296 191.481 293.704 191.481 L 291.111 191.481 291.111 193.406 L 291.111 195.330 289.907 194.166 C 287.222 191.567,281.081 190.342,277.157 191.623 M325.774 191.694 C 324.978 191.986,323.770 192.649,323.089 193.168 L 321.852 194.112 321.852 192.797 L 321.852 191.481 319.259 191.481 L 316.667 191.481 316.667 205.185 L 316.667 218.889 319.259 218.889 L 321.852 218.889 321.852 211.162 C 321.852 199.051,322.861 196.487,327.924 195.727 C 334.356 194.763,336.035 197.634,336.225 209.924 L 336.364 218.921 338.830 218.812 L 341.296 218.704 341.296 208.889 C 341.296 197.553,341.060 196.507,337.857 193.688 C 335.104 191.264,329.480 190.336,325.774 191.694 M63.695 196.668 C 70.731 200.289,69.680 212.436,62.154 214.463 C 51.427 217.351,46.937 199.484,57.533 196.073 C 59.367 195.482,61.859 195.723,63.695 196.668 M284.587 196.080 C 293.945 198.896,292.235 214.815,282.575 214.815 C 272.517 214.815,270.421 198.262,280.190 195.976 C 282.287 195.485,282.637 195.493,284.587 196.080 " stroke="none" fill="#000000" fill-rule="evenodd"></path></g></svg>