<svg id="svg" xmlns="http://www.w3.org/2000/svg" xmlns:xlink="http://www.w3.org/1999/xlink" width="400" height="400" viewBox="0, 0, 400,400"><g id="svgg"><path id="path0" d="M254.691 192.840 C 254.556 192.975,254.440 194.017,254.435 195.154 C 254.430 196.292,254.257 197.959,254.049 198.859 C 253.842 199.759,253.545 201.809,253.390 203.414 L 253.108 206.332 254.424 206.222 C 255.612 206.122,255.752 205.993,255.857 204.907 C 256.006 203.358,256.377 203.384,257.148 205.000 C 257.703 206.164,257.918 206.296,259.253 206.296 C 261.014 206.296,261.013 206.301,259.633 203.738 C 258.453 201.545,258.474 201.410,260.350 199.259 C 261.800 197.596,261.774 197.408,260.093 197.404 C 258.976 197.401,258.506 197.637,257.695 198.608 C 256.497 200.042,256.449 199.765,257.185 195.654 C 257.449 194.180,257.579 192.888,257.475 192.783 C 257.196 192.505,254.981 192.550,254.691 192.840 M140.740 194.352 C 140.739 194.912,140.503 196.787,140.215 198.519 C 139.927 200.250,139.586 202.708,139.457 203.981 L 139.222 206.296 143.315 206.296 L 147.407 206.296 147.407 205.370 C 147.407 204.478,147.321 204.444,145.000 204.444 C 142.341 204.444,142.262 204.338,142.824 201.528 C 143.049 200.404,143.113 200.370,145.046 200.370 C 146.923 200.370,147.037 200.317,147.037 199.444 C 147.037 198.571,146.924 198.519,145.035 198.519 C 142.876 198.519,142.983 198.679,143.499 196.221 C 143.699 195.266,143.827 195.214,146.207 195.109 C 148.475 195.010,148.715 194.924,148.822 194.167 C 148.939 193.346,148.880 193.333,144.841 193.333 L 140.741 193.333 140.740 194.352 M186.896 195.463 C 186.762 196.634,186.502 198.936,186.319 200.577 C 186.136 202.219,185.871 204.177,185.730 204.929 L 185.473 206.296 186.804 206.296 C 188.312 206.296,188.331 206.255,188.691 202.136 C 189.080 197.674,189.241 197.678,191.430 202.218 L 193.395 206.296 194.846 206.296 C 196.275 206.296,196.296 206.276,196.297 204.907 C 196.298 204.144,196.533 202.102,196.820 200.370 C 197.106 198.639,197.431 196.347,197.542 195.278 L 197.743 193.333 196.515 193.333 L 195.287 193.333 194.827 196.204 C 194.149 200.445,194.035 200.467,192.193 196.699 L 190.556 193.347 188.848 193.340 L 187.141 193.333 186.896 195.463 M212.591 194.352 C 212.591 194.912,212.355 196.787,212.067 198.519 C 211.779 200.250,211.438 202.708,211.309 203.981 L 211.074 206.296 212.539 206.296 L 214.005 206.296 214.271 204.352 C 214.771 200.709,214.966 200.638,216.301 203.611 L 217.507 206.296 219.149 206.296 C 221.055 206.296,221.059 206.115,219.216 202.646 L 218.162 200.663 218.989 199.973 C 219.443 199.594,219.913 199.278,220.033 199.272 C 220.369 199.253,221.111 197.459,221.111 196.667 C 221.111 194.227,219.617 193.333,215.538 193.333 L 212.593 193.333 212.591 194.352 M168.395 195.062 C 168.259 195.198,168.148 195.781,168.148 196.358 C 168.148 197.044,167.956 197.407,167.593 197.407 C 167.287 197.407,167.037 197.560,167.037 197.747 C 167.037 197.935,166.936 198.351,166.812 198.673 C 166.665 199.058,166.792 199.259,167.183 199.259 C 167.892 199.259,167.896 199.329,167.355 202.605 C 166.810 205.905,167.126 206.376,169.782 206.221 C 172.015 206.091,173.069 204.074,170.904 204.074 C 169.985 204.074,169.926 203.984,170.139 202.917 C 170.266 202.280,170.370 201.197,170.370 200.509 C 170.370 199.367,170.466 199.259,171.481 199.259 C 172.420 199.259,172.593 199.115,172.593 198.333 C 172.593 197.595,172.407 197.407,171.676 197.407 C 170.843 197.407,170.792 197.320,171.123 196.450 C 171.656 195.049,169.503 193.953,168.395 195.062 M217.416 195.934 C 218.324 196.843,217.895 197.981,216.435 198.536 C 215.029 199.071,214.783 198.973,214.993 197.963 C 215.099 197.454,215.272 196.620,215.377 196.111 C 215.610 194.991,216.404 194.922,217.416 195.934 M155.309 197.887 C 152.520 199.438,151.698 204.654,154.045 205.910 C 154.790 206.309,161.203 206.327,161.842 205.932 C 162.461 205.550,161.969 204.074,161.223 204.074 C 160.757 204.074,160.692 203.804,160.892 202.685 C 161.028 201.921,161.238 200.437,161.359 199.387 L 161.578 197.477 158.845 197.459 C 157.341 197.449,155.750 197.642,155.309 197.887 M228.101 198.037 C 225.904 199.387,225.065 203.751,226.672 205.476 C 227.399 206.256,232.304 206.608,234.537 206.041 C 235.434 205.813,235.365 204.422,234.444 204.181 C 233.613 203.964,233.567 203.699,234.040 201.852 C 234.223 201.139,234.471 199.869,234.591 199.029 L 234.808 197.503 231.941 197.471 C 229.906 197.449,228.792 197.613,228.101 198.037 M240.476 199.352 C 240.445 200.421,240.272 202.421,240.091 203.796 L 239.762 206.296 240.967 206.296 C 242.324 206.296,242.348 206.252,242.983 202.514 C 243.313 200.565,243.565 199.976,244.147 199.792 C 245.276 199.433,245.536 200.004,245.168 202.037 C 244.310 206.779,244.229 206.296,245.882 206.296 L 247.354 206.296 247.611 204.240 C 248.082 200.468,248.009 198.152,247.407 197.771 C 246.620 197.272,244.306 197.324,243.778 197.852 C 243.432 198.198,243.333 198.198,243.333 197.852 C 243.333 197.585,242.775 197.407,241.933 197.407 L 240.532 197.407 240.476 199.352 M158.347 201.019 C 157.764 204.212,155.713 205.250,155.771 202.324 C 155.807 200.492,156.418 199.630,157.679 199.630 C 158.543 199.630,158.585 199.718,158.347 201.019 M231.481 200.759 C 231.481 202.504,230.489 204.143,229.516 204.004 C 228.834 203.907,228.711 203.664,228.747 202.491 C 228.824 199.993,231.481 198.309,231.481 200.759 " stroke="none" fill="#000000" fill-rule="evenodd"></path></g></svg>